<svg xmlns:dc="http://purl.org/dc/elements/1.1/" xmlns:cc="http://creativecommons.org/ns#" xmlns:rdf="http://www.w3.org/1999/02/22-rdf-syntax-ns#" xmlns:svg="http://www.w3.org/2000/svg" xmlns="http://www.w3.org/2000/svg" viewBox="103.15172576904297 221.08778381347656 587.6249389648438 672.1132202148438" height="1122.52" width="793.70667" xml:space="preserve" id="svg2" version="1.1"><metadata id="metadata8"><rdf:rdf><cc:work rdf:about=""><dc:format>image/svg+xml</dc:format><dc:type rdf:resource="http://purl.org/dc/dcmitype/StillImage"></dc:type></cc:work></rdf:rdf></metadata><defs id="defs6"><clipPath id="clipPath18" clipPathUnits="userSpaceOnUse"><path id="path16" d="M 0,841.89 H 595.28 V 0 H 0 Z"></path></clipPath></defs><g transform="matrix(1.3333333,0,0,-1.3333333,0,1122.52)" id="g10"><g id="g12"><g clip-path="url(#clipPath18)" id="g14"><g transform="translate(449.2441,427.4052)" id="g20"><path id="path22" style="fill:#a7a5a6;fill-opacity:1;fill-rule:nonzero;stroke:none" d="m 0,0 c 2.652,-3.892 5.774,-8.476 8.975,-13.173 1.227,2.629 2.486,5.326 3.651,7.805 C 7.952,-3.378 3.588,-1.523 0,0 m 21.169,60.242 c 2.907,-3.854 5.871,-7.775 8.942,-11.838 0.602,4.023 1.171,7.822 1.688,11.263 -3.761,0.202 -7.233,0.39 -10.63,0.575 M -19.053,5.801 c 5.459,2.025 9.978,-0.322 14.688,-2.452 -5.124,5.864 -9.132,12.048 -7.795,20.63 13.171,-0.382 23.214,-5.54 29.578,-18.66 1.562,4.08 2.811,7.342 4.183,10.932 -10.858,0.596 -18.473,5.999 -24.131,14.345 -3.122,4.609 -4.794,9.735 -3.503,15.423 8.725,1.443 24.102,-4.563 29.763,-22.816 0.997,3.36 1.843,6.002 2.564,8.685 0.722,2.671 1.315,5.377 2.044,8.408 -11.452,-0.527 -20.287,4.115 -27.073,12.78 -2.94,3.761 -4.446,8.103 -4.148,13.678 4.544,-0.316 8.751,-0.61 13.25,-0.928 -1.41,1.387 -3.064,2.463 -3.953,3.996 -2.371,4.087 -4.647,8.275 -6.502,12.62 -0.933,2.196 0.06,3.619 3.015,3.639 12.853,0.098 22.417,-5.225 28.515,-16.607 0.226,-0.427 0.475,-0.841 1.471,-1.221 0.37,5.502 0.742,10.999 1.141,16.92 -9.564,-2.64 -17.773,-0.266 -25.329,4.606 -5.144,3.317 -8.957,7.82 -9.995,14.669 6.237,2.537 12.919,3.102 18.999,0.61 5.878,-2.413 11.044,-6.582 16.228,-9.801 l -0.642,12.851 C 19.414,104.312 6.849,109.415 3.121,120.3 c 7.003,5.912 19.199,4.031 30.131,-5.193 -0.598,5.389 -1.107,10.039 -1.666,15.08 -8.473,-4.092 -16.537,-3.219 -24.237,1.373 -4.006,2.388 -7.178,5.564 -8.056,10.419 10.006,5.245 19.377,3.033 31.453,-7.604 -0.788,4.573 -1.493,8.721 -2.224,12.989 -8.972,0.025 -17.774,-0.195 -24.245,6.971 -2.773,3.067 -4.312,6.765 -4.071,11.489 2.95,0.295 5.78,0.575 8.977,0.892 -7.173,24.132 -12.037,48.688 -12.913,73.933 0.742,-5.175 1.217,-10.408 2.277,-15.517 3.885,-18.667 7.996,-37.291 11.935,-55.945 0.483,-2.277 1.811,-3.071 3.779,-4.109 4.039,-2.128 7.681,-5.002 11.349,-7.474 -0.028,2.197 -0.964,4.334 -3.463,6.167 -8.53,6.274 -11.584,15.734 -7.61,25.476 1.703,4.168 1.212,7.734 0.284,11.705 -3.473,14.887 -6.834,29.804 -10.196,44.718 -0.21,0.928 -0.122,1.927 0.403,2.999 2.495,-9.767 5.019,-19.525 7.48,-29.299 1.974,-7.845 3.824,-15.724 5.884,-23.548 0.301,-1.163 1.232,-2.497 2.254,-3.087 7.416,-4.269 10.621,-10.563 9.261,-19.027 -0.416,-2.606 -1.44,-5.12 -1.827,-7.728 -0.476,-3.152 -0.569,-6.362 -0.268,-9.343 2.135,4.227 4.768,8.289 6.198,12.74 0.844,2.622 0.063,5.911 -0.48,8.806 -4.263,22.619 -9.027,45.123 -16.632,66.919 -0.063,0.194 0.097,0.467 0.318,1.425 10.172,-24.098 14.585,-49.066 19.617,-74.156 3.281,1.404 6.574,2.813 9.8,4.19 3.476,-5.444 3.297,-13.32 -1.279,-18.231 -3.449,-3.705 -7.875,-6.629 -12.231,-9.313 -2.073,-1.276 -3.001,-2.144 -2.447,-4.581 0.666,-2.949 0.971,-5.977 1.72,-9.172 3.111,12.648 11.256,19.263 23.8,20.819 4.267,-11.109 -8.068,-24.67 -23.265,-25.458 0.603,-4.942 1.206,-9.862 1.858,-15.216 5.052,13.705 14.32,18.629 24.291,18.641 3.151,-11.571 -8.927,-24.026 -23.897,-24.446 l 0.81,-16.156 c 2.837,6.572 6.429,11.857 11.923,15.401 5.524,3.559 11.685,5.305 18.293,5.095 3.997,-13.238 -11.781,-28.134 -29.98,-28.287 -0.172,-4.468 -0.341,-8.944 -0.553,-14.469 5.238,7.525 11.399,12.5 19.58,13.982 4.367,0.788 8.946,0.395 13.326,0.536 C 70.139,73.09 51.25,58.237 35.137,62.315 34.678,58.254 34.222,54.277 33.769,50.3 c 5.601,4.602 10.975,8.694 18.021,9.679 5.679,0.794 11.321,0.804 16.764,-1.318 C 66.62,44.856 50.324,36.441 32.215,39.997 31.214,35.121 30.212,30.24 29.126,24.981 43.436,35.865 51.478,38.056 62.691,34.338 64.55,24.394 44.153,8.506 26.508,15.254 25.483,11.799 24.459,8.371 23.187,4.08 c 7.112,5.562 14.441,7.831 22.558,6.79 3.11,-0.396 6.152,-1.41 9.197,-2.224 2.199,-0.593 2.216,-1.955 1.331,-3.8 -2.753,-5.737 -7.543,-9.228 -13.214,-11.371 -7.662,-2.9 -15.502,-3.597 -23.602,0.212 -1.39,-3.229 -2.756,-6.396 -3.854,-8.942 5.24,1.108 10.61,2.556 16.076,3.314 5.848,0.811 11.185,-1.298 16.223,-4.036 C 45.296,-28.375 26.892,-34.161 9.583,-28.021 7.764,-31.37 5.919,-34.76 3.551,-39.117 c 15.539,7.231 29.286,5.081 42.24,-3.986 C 40.59,-58.25 16.198,-65.46 0.702,-53.7 c 0,0 -94.836,-159.265 -370.896,-142.857 v 21.235 c 0,0 224.662,-41.986 354.558,124.066 0.381,0.485 0.738,1 1.282,1.753 -8.391,4.929 -14.107,12.013 -17.614,20.863 -2.467,6.223 -3.849,12.586 -1.654,19.254 1.005,3.045 2.53,3.749 5.653,2.331 12.747,-5.801 18.062,-11.4 24.611,-27.014 2.038,3.214 3.866,6.092 5.971,9.424 -14.195,5.426 -21.343,15.521 -21.666,30.446"></path></g><g transform="translate(284.3613,399.2181)" id="g24"><path id="path26" style="fill:#110f0d;fill-opacity:1;fill-rule:nonzero;stroke:none" d="m 0,0 c -5.847,2.479 -11.63,2.515 -17.978,1.904 3.174,-1.865 5.838,-3.507 8.593,-4.984 0.623,-0.335 1.68,-0.363 2.35,-0.099 C -4.734,-2.266 -2.516,-1.156 0,0 m 28.066,-12.933 c 11.83,2.432 21.967,6.383 31.268,12.342 1.642,1.055 0.825,2.11 -0.055,3.13 C 56.296,6.015 50.742,7.197 46.393,5.323 38.136,1.756 33.209,-4.935 28.066,-12.933 m -30.941,4.606 c 3.827,-2.887 7.389,-5.461 12.2,-5.529 3.406,-0.048 6.817,-0.133 10.216,-0.031 1.464,0.044 3.66,0.053 4.229,0.896 1.759,2.594 4.023,5.579 4.037,8.421 0.023,5.563 -1.227,11.15 -2.161,16.692 -1.579,9.424 -3.224,18.838 -5.017,28.22 -1.609,8.434 -3.662,16.795 -5.064,25.259 -0.419,2.523 0.697,5.282 1.157,8.217 3.468,-2.433 9.97,-16.091 8.93,-18.251 -1.042,0.961 -2.055,1.892 -3.366,3.097 2.206,-20.419 9.555,-39.734 8.388,-60.069 3.649,3.778 6.968,7.74 10.854,11.083 3.893,3.342 8.518,4.843 14.045,3.635 10.202,-2.231 11.365,-10.61 6.429,-17.705 -1.532,-2.201 -4.008,-3.887 -6.302,-5.474 -2.316,-1.598 -4.936,-2.78 -8.299,-4.62 1.781,0 2.752,-0.023 3.729,0.002 6.632,0.19 13.287,0.164 19.897,0.654 6.37,0.471 9.373,5.291 8.099,11.35 -1.917,9.136 -3.438,18.354 -5.154,27.532 -1.371,7.298 -2.989,14.567 -4.07,21.903 -0.431,2.884 0.288,5.925 0.486,8.895 0.545,0.128 1.092,0.252 1.639,0.378 0.848,-1.731 2.102,-3.386 2.467,-5.205 1.955,-9.77 3.704,-19.574 5.485,-29.379 1.236,-6.79 2.338,-13.606 3.648,-20.388 0.619,-3.204 1.252,-6.47 2.449,-9.5 3.036,-7.674 21.717,-6.554 26.39,-1.245 0.784,0.885 0.976,2.607 0.802,3.859 -1.425,10.205 -2.952,20.401 -4.551,30.579 -1.668,10.604 -3.433,21.191 -5.195,31.781 -0.659,3.974 -1.797,7.912 -2.007,11.902 -0.122,2.399 1.125,4.866 1.756,7.305 0.375,0.067 0.759,0.138 1.135,0.208 2.807,-5.709 5.611,-11.416 8.417,-17.124 -0.234,-0.24 -0.465,-0.483 -0.696,-0.723 -1.231,0.776 -2.458,1.551 -4.214,2.661 0.661,-4.173 1.28,-7.962 1.858,-11.76 1.224,-8.078 2.393,-16.17 3.647,-24.25 0.943,-6.087 2.128,-12.143 2.94,-18.247 0.877,-6.608 2.305,-13.302 -0.63,-19.79 -2.469,-5.448 -7.121,-7.957 -13.623,-7.56 -4.926,0.299 -17.335,3.092 -18.861,8.458 -0.107,0.385 -0.37,0.728 -0.738,1.435 -2.154,-5.027 -4.748,-9.294 -10.489,-10.463 -1.067,-0.214 -2.165,-0.391 -3.253,-0.391 -19.657,-0.027 -39.314,-0.085 -58.971,0.015 -6.483,0.032 -11.895,2.952 -16.647,6.952 -2.167,1.824 -3.843,2.095 -6.637,0.788 -5.885,-2.753 -11.944,-5.455 -18.235,-7.064 -12.167,-3.102 -15.345,2.728 -16.791,12.19 -1.652,10.832 -2.038,21.842 -3.587,32.688 -1.07,7.526 -3.39,14.875 -4.715,22.373 -0.489,2.759 0.277,5.727 0.47,8.599 0.56,0.099 1.119,0.201 1.678,0.302 1.112,-3.047 2.736,-6.017 3.246,-9.157 1.805,-11.098 3.265,-22.253 4.782,-33.39 0.977,-7.177 1.76,-14.377 2.749,-21.55 0.537,-3.888 2.721,-5.203 6.854,-5.156 7.879,0.095 14.515,3.455 21.407,6.778 -6.545,5.302 -8.575,5.912 -14.018,4.362 -0.645,3.507 2.208,8.846 5.458,9.914 10.351,3.4 20.495,3.077 30.427,-1.598 C 7.963,4.623 9.169,3.609 8.653,1.818 8.046,-0.28 7.508,-2.898 5.954,-4.12 3.566,-5.998 0.339,-6.873 -2.875,-8.327"></path></g><g transform="translate(406.417,534.5048)" id="g28"><path id="path30" style="fill:#110f0d;fill-opacity:1;fill-rule:nonzero;stroke:none" d="m 0,0 c 1.95,-3.989 3.903,-7.98 5.854,-11.969 -0.182,-0.131 -0.36,-0.264 -0.542,-0.393 -0.866,0.477 -1.735,0.954 -2.685,1.474 1.46,-9.285 3.093,-18.346 4.194,-27.472 0.367,-3.033 -0.049,-6.455 -1.136,-9.307 -2.222,-5.843 -10.273,-7.134 -15.305,-2.29 -5.676,5.459 -10.803,11.487 -16.172,17.265 -1.16,1.249 -2.338,2.484 -4.144,4.4 1.083,-2.41 1.931,-3.943 2.48,-5.578 2.187,-6.529 0.193,-11.923 -5.687,-15.63 -6.886,-4.34 -14.422,-6.547 -22.526,-7.038 -0.957,-0.056 -2.644,-0.844 -2.675,-1.368 -0.372,-6.327 -4.601,-10.044 -8.837,-13.873 -8.434,-7.628 -16.903,-11.528 -28.34,-12.249 0.768,0.537 1.517,1.105 2.307,1.61 8.414,5.347 16.868,10.634 25.23,16.058 1.941,1.261 3.879,2.754 5.273,4.564 0.956,1.241 0.965,3.212 1.484,5.193 -2.931,0.181 -4.964,0.15 -6.95,0.464 -4.503,0.714 -6.199,3.536 -4.115,7.638 0.998,1.964 3.022,3.974 5.039,4.714 2.819,1.034 5.004,-1.35 6.032,-3.672 1.444,-3.254 3.26,-3.862 6.714,-3.351 6.806,1.005 13.265,2.794 19.138,6.352 4.831,2.931 6.009,6.976 2.443,11.451 -4.651,5.833 -9.246,11.722 -14.178,17.31 -4.717,5.346 -3.804,11.444 2.751,14.041 8.654,3.427 17.405,6.632 26.189,9.714 2.244,0.786 4.768,0.953 7.178,1.036 3.288,0.116 4.905,-1.308 3.686,-4.182 -2.368,-5.604 -5.658,-10.821 -8.638,-16.159 -0.146,-0.262 -0.945,-0.164 -1.745,-0.275 2.685,5.094 5.226,9.91 7.77,14.729 -0.309,0.355 -0.62,0.712 -0.929,1.068 -2.528,-0.52 -5.161,-0.743 -7.558,-1.61 -9.218,-3.327 -18.359,-6.86 -27.903,-10.461 5.177,-4.236 10.034,-7.709 14.287,-11.803 6.926,-6.665 13.463,-13.735 20.157,-20.64 1.928,-1.99 3.723,-4.126 5.778,-5.972 2.634,-2.364 8.43,-1.45 9.771,1.773 0.681,1.641 0.164,3.897 -0.15,5.822 -1.795,11.088 -3.778,22.148 -5.464,33.252 -0.254,1.665 0.718,3.514 1.123,5.279 C -0.534,-0.058 -0.267,-0.028 0,0"></path></g><g transform="translate(407.4551,564.6678)" id="g32"><path id="path34" style="fill:#110f0d;fill-opacity:1;fill-rule:nonzero;stroke:none" d="m 0,0 c -7.569,-13.159 -20.604,-10.9 -22.824,-0.096 -3.026,-3.69 -5.445,-8.17 -10.623,-8.638 -4.549,-0.412 -9.511,-0.978 -11.234,5.57 -4.573,-6.958 -9.951,-12.224 -17.109,-15.338 -5.899,-2.569 -12.022,-3.593 -18.245,-1.064 -4.819,1.961 -7.954,7.167 -7.224,12.313 0.456,3.207 1.404,6.342 2.13,9.509 0.499,-0.084 0.998,-0.167 1.498,-0.254 -0.239,-1.835 -0.355,-3.694 -0.736,-5.498 -1.219,-5.738 2.808,-11.091 8.636,-11.768 9.714,-1.127 16.829,3.821 23.91,9.421 4.138,3.274 4.794,6.782 3.775,11.794 -2.39,11.737 -4.161,23.605 -6.015,35.446 -0.252,1.626 0.457,3.405 0.725,5.114 0.446,0.076 0.893,0.152 1.342,0.229 0.869,-2.867 2.024,-5.683 2.556,-8.613 2.025,-11.162 3.945,-22.346 5.696,-33.552 0.61,-3.913 2.025,-7.226 6.028,-8.054 4.17,-0.86 8.021,0.54 10.895,3.899 1.854,2.165 3.607,4.413 5.724,7.01 0.326,-1.053 0.663,-1.609 0.635,-2.144 -0.193,-3.583 0.84,-6.747 4.181,-8.276 3.668,-1.681 7.423,-0.721 10.399,1.788 2.25,1.897 3.949,4.449 5.901,6.699 0.471,0.541 0.979,1.046 1.734,1.85 0.433,-2.293 0.664,-4.26 1.2,-6.138 0.727,-2.528 2.434,-4.288 5.08,-4.76 2.916,-0.519 5.714,0.219 7.493,2.557 0.788,1.04 0.709,3.022 0.493,4.499 -1.36,9.238 -2.848,18.455 -4.334,27.674 -0.487,3.019 -1.323,6.004 -1.522,9.038 -0.131,2.003 0.591,4.063 0.931,6.1 0.3,0.07 0.606,0.142 0.906,0.215 1.968,-4.229 3.937,-8.454 5.91,-12.681 -0.222,-0.156 -0.435,-0.309 -0.657,-0.463 -0.746,0.397 -1.492,0.792 -2.576,1.37 1.094,-6.897 2.302,-13.464 3.126,-20.077 C 18.4,9.865 18.827,4.978 18.706,0.135 18.573,-5.082 15.5,-8.582 11.752,-8.832 5.006,-9.279 2.055,-7.218 0.649,-1.088 0.582,-0.806 0.341,-0.563 0,0"></path></g><g transform="translate(214.0576,404.222)" id="g36"><path id="path38" style="fill:#110f0d;fill-opacity:1;fill-rule:nonzero;stroke:none" d="M 0,0 C 0.093,-0.357 0.184,-0.716 0.277,-1.075 2.674,-1.957 5.072,-2.842 8.176,-3.986 7.253,-0.7 7.125,2.068 4.133,2.134 2.771,2.162 1.377,0.757 0,0 m -77.783,-63.825 c 0.716,0.527 1.4,1.114 2.154,1.582 13.104,8.147 26.344,16.083 39.269,24.501 6.502,4.233 12.332,9.485 18.656,14.012 6.155,4.408 9.041,10.681 11.46,17.522 1.503,4.244 3.644,8.351 6.066,12.16 3.034,4.761 8.141,4.555 11.136,-0.197 3.012,-4.781 3.927,-9.893 1.34,-15.152 -0.42,-0.852 -1.966,-1.848 -2.781,-1.69 -4.134,0.792 -8.195,1.943 -12.97,3.139 -0.446,-1.307 -1.324,-3.163 -1.705,-5.12 -1.653,-8.502 -7.253,-14.21 -13.401,-19.648 -16.209,-14.336 -35.221,-23.67 -55.261,-31.193 -1.134,-0.424 -2.373,-0.571 -3.561,-0.847 -0.134,0.307 -0.267,0.619 -0.402,0.931"></path></g><g transform="translate(248.2578,487.1449)" id="g40"><path id="path42" style="fill:#110f0d;fill-opacity:1;fill-rule:nonzero;stroke:none" d="m 0,0 c -0.51,-2.403 -1.032,-3.875 -1.106,-5.371 -0.207,-4.169 -0.852,-8.453 -0.16,-12.493 0.804,-4.683 4.045,-6.614 8.87,-6.638 7.519,-0.034 14,3.197 20.396,6.622 2.879,1.541 5.679,3.233 8.515,4.856 -0.044,0.297 -0.085,0.593 -0.126,0.89 -2.596,0.573 -5.192,1.157 -7.793,1.714 -0.72,0.154 -1.554,0.04 -2.179,0.357 -1.838,0.936 -5.234,0.114 -4.756,3.813 0.541,4.177 2.545,6.08 6.295,6.133 3.433,0.046 6.883,0.254 10.289,-0.038 6.198,-0.532 10.32,2.481 13.651,7.227 0.688,0.978 1.605,1.792 2.908,3.216 0.186,-1.39 0.301,-1.969 0.342,-2.552 0.365,-5.509 2.81,-7.842 8.308,-7.836 4.022,0.005 8.181,-0.475 11.783,3.016 -2.007,2.671 -3.346,5.579 -0.912,8.741 2.707,-1.577 4.08,-5.999 3.15,-9.835 -1.119,-4.607 -4.338,-7.085 -9.204,-7.082 -0.75,0 -1.509,0.072 -2.249,-0.014 -6.503,-0.763 -11.367,1.122 -12.775,7.405 -3.333,-2.393 -6.396,-5.754 -10.15,-6.956 -3.776,-1.207 -8.238,-0.265 -12.431,-0.756 1.611,-0.317 3.271,-0.486 4.82,-0.991 1.631,-0.532 4.104,-1.025 4.529,-2.165 0.918,-2.457 0.76,-5.452 -1.683,-7.297 -3.386,-2.558 -6.835,-5.096 -10.521,-7.166 -6.017,-3.378 -12.205,-6.518 -19.394,-6.495 -8.051,0.026 -12.434,3.259 -12.862,11.375 -0.288,5.464 1.512,11.044 2.46,16.558 C -1.911,-1.335 -1.181,-1.019 0,0"></path></g><g transform="translate(296.0396,510.3192)" id="g44"><path id="path46" style="fill:#a7a5a6;fill-opacity:1;fill-rule:nonzero;stroke:none" d="M 0,0 C 1.661,2.348 3.064,4.336 4.772,6.752 8.101,3.896 11.291,1.161 14.618,-1.69 12.497,-4.779 10.52,-7.664 8.32,-10.872 5.7,-8.686 3.286,-6.673 0.646,-4.47 c -1.543,-2.156 -3.012,-4.206 -4.711,-6.574 -3.358,2.968 -6.58,5.816 -9.986,8.824 2.169,3.072 4.17,5.906 6.365,9.021 C -5.006,4.432 -2.631,2.33 0,0"></path></g><g transform="translate(428.2715,478.6923)" id="g48"><path id="path50" style="fill:#110f0d;fill-opacity:1;fill-rule:nonzero;stroke:none" d="m 0,0 c -0.676,4.143 -1.313,8.294 -2.031,12.429 -2.522,14.518 -5.151,29.021 -7.565,43.559 -0.595,3.572 -0.595,7.253 -0.74,10.89 -0.026,0.622 0.591,1.273 1.368,2.815 2.202,-4.543 4.082,-8.424 6.365,-13.124 -1.599,0.692 -2.35,1.017 -3.288,1.422 C -3.603,38.626 2.929,19.875 1.079,0.194 0.721,0.13 0.359,0.063 0,0"></path></g><g transform="translate(441.8408,552.5936)" id="g52"><path id="path54" style="fill:#110f0d;fill-opacity:1;fill-rule:nonzero;stroke:none" d="m 0,0 c -0.689,4.142 -1.381,8.284 -2.068,12.426 -1.254,7.532 -2.515,15.06 -3.747,22.594 -1.511,9.209 -3.103,18.411 -4.392,27.653 -0.249,1.789 0.729,3.75 1.141,5.632 l 1.033,0.113 c 1.917,-4.17 3.833,-8.34 5.752,-12.511 -0.227,-0.154 -0.452,-0.304 -0.676,-0.456 -0.631,0.44 -1.263,0.879 -2.294,1.598 C -3.216,37.833 3.032,19.385 1.178,0.144 Z"></path></g><g transform="translate(271.73,434.4686)" id="g56"><path id="path58" style="fill:#a7a5a6;fill-opacity:1;fill-rule:nonzero;stroke:none" d="m 0,0 c -2.087,1.721 -4.032,3.327 -6.135,5.061 -1.304,-1.738 -2.495,-3.327 -3.921,-5.229 -2.414,2.129 -4.742,4.081 -6.925,6.185 -0.432,0.421 -0.655,1.642 -0.363,2.121 1.259,2.067 2.746,3.993 4.321,6.217 2.149,-1.89 4.035,-3.55 6.191,-5.448 1.37,1.796 2.682,3.519 4.131,5.422 2.406,-2.053 4.645,-3.838 6.7,-5.818 C 4.478,8.053 4.71,6.689 4.386,6.155 3.118,4.081 1.582,2.172 0,0"></path></g><g transform="translate(306.8262,469.2313)" id="g60"><path id="path62" style="fill:#a7a5a6;fill-opacity:1;fill-rule:nonzero;stroke:none" d="m 0,0 c 1.585,2.27 3.036,4.349 4.776,6.835 1.955,-1.498 3.827,-2.932 5.951,-4.558 1.127,1.534 2.17,2.955 3.471,4.726 2.254,-1.942 4.45,-3.725 6.482,-5.678 0.409,-0.393 0.536,-1.635 0.222,-2.128 -1.169,-1.869 -2.576,-3.59 -3.983,-5.49 -1.99,1.71 -3.745,3.218 -5.656,4.861 C 9.93,-3.053 8.682,-4.574 7.274,-6.283 4.762,-4.113 2.45,-2.117 0,0"></path></g><g transform="translate(332.1465,565.577)" id="g64"><path id="path66" style="fill:#110f0d;fill-opacity:1;fill-rule:nonzero;stroke:none" d="m 0,0 c 3.44,2.261 5.91,3.883 9.093,5.974 -6.169,0.727 -7.007,1.83 -5.543,6.721 0.747,2.488 1.832,4.912 3.069,7.2 0.515,0.949 1.832,1.466 2.786,2.178 0.384,-0.265 0.769,-0.532 1.157,-0.798 C 9.329,18.568 8.099,15.86 6.781,12.963 7.659,12.911 8.567,12.833 9.478,12.812 12.877,12.73 13.398,12.114 12.768,8.85 11.754,3.61 8.386,0.08 3.682,-0.499 2.727,-0.617 1.716,-0.25 0,0"></path></g><g transform="translate(384.3877,576.2811)" id="g68"><path id="path70" style="fill:#a7a5a6;fill-opacity:1;fill-rule:nonzero;stroke:none" d="m 0,0 c -2.721,2.279 -5.146,4.187 -7.395,6.283 -0.485,0.452 -0.717,1.789 -0.411,2.37 1.034,1.958 2.369,3.759 3.802,5.952 C -1.044,12.057 1.742,9.66 4.678,7.13 3.126,4.768 1.694,2.583 0,0"></path></g><g transform="translate(406.457,556.6034)" id="g72"><path id="path74" style="fill:#a7a5a6;fill-opacity:1;fill-rule:nonzero;stroke:none" d="m 0,0 c 1.241,-0.958 2.095,-1.576 2.904,-2.249 5.07,-4.206 5.068,-4.21 0.362,-9.718 -2.296,1.932 -4.602,3.868 -7.099,5.97 C -2.528,-3.958 -1.355,-2.121 0,0"></path></g><g transform="translate(252.2866,412.476)" id="g76"><path id="path78" style="fill:#131210;fill-opacity:1;fill-rule:nonzero;stroke:none" d="m 0,0 c -1.18,0 -2.097,0.525 -2.708,1.354 -0.744,0.962 -1.09,2.403 -1.09,3.581 0,1.181 0.128,2.098 0.61,3.322 0.48,1.222 1.179,2.358 2.228,2.358 0.437,0 0.437,-0.397 0.35,-0.832 -0.132,-0.74 -0.219,-1.178 -0.219,-2.051 0,-1.486 1.091,-2.226 2.359,-2.226 1.265,0 2.226,1.176 2.88,2.705 0.963,2.314 2.056,3.146 2.841,3.146 0.305,0 0.524,-0.261 0.48,-0.918 C 7.687,10.048 7.642,9.827 7.642,9.304 c 0,-0.918 0.439,-1.528 1.704,-1.528 1.05,0 1.967,0.654 2.841,2.313 0.874,1.664 1.135,2.316 1.746,2.316 0.523,0 0.523,-0.915 0.523,-1.572 0,-1.836 -0.479,-3.583 -1.483,-5.242 C 12.143,4.192 10.788,2.621 8.517,2.621 7.251,2.621 6.55,2.971 5.941,3.538 5.59,3.888 5.373,3.625 4.937,3.059 3.232,1.003 1.615,0 0,0"></path></g><g transform="translate(365.1094,354.434)" id="g80"><path id="path82" style="fill:#110f0d;fill-opacity:1;fill-rule:nonzero;stroke:none" d="M 0,0 C -0.801,2.117 -2.16,3.177 -4.08,3.177 -5.358,3.177 -6,2.646 -6,1.59 -6,0.687 -5.201,0.239 -3.599,0.239 h 1.598 C -1.146,0.239 -0.479,0.16 0,0 m 3.761,-8.648 c 0,0.158 0.026,0.291 0.081,0.398 v 0.236 c 0,0.898 -0.478,1.679 -1.43,2.343 -0.952,0.658 -2.09,0.991 -3.41,0.991 h -0.24 l -2.698,-0.16 c -1.484,0 -2.672,0.425 -3.572,1.278 -0.897,0.85 -1.348,1.942 -1.348,3.276 0,1.915 0.666,3.858 1.996,5.829 1.062,1.596 2.419,2.394 4.067,2.394 2.022,0 3.936,-1.438 5.744,-4.312 1.915,-2.874 2.874,-5.935 2.874,-9.178 0,-2.75 -0.611,-5.105 -1.826,-7.061 -1.217,-2.117 -3.333,-4.526 -6.348,-7.222 -1.798,-1.589 -3.517,-3.029 -5.159,-4.325 -1.639,-1.298 -3.226,-2.474 -4.761,-3.533 -0.952,-0.635 -1.773,-1.113 -2.458,-1.427 -0.69,-0.37 -2.33,-0.927 -4.92,-1.668 l -3.969,-1.11 c -0.9,-0.265 -2.406,-0.662 -4.523,-1.191 l -3.097,-0.716 c -0.528,-0.102 -0.819,-0.158 -0.871,-0.158 -0.161,0 -0.239,0.056 -0.239,0.158 0,0.16 0.291,0.399 0.873,0.716 l 1.984,1.031 c 0.529,0.267 1.138,0.569 1.825,0.913 0.687,0.343 1.482,0.754 2.382,1.23 3.491,1.852 6.812,3.798 9.96,5.833 3.145,2.036 6.148,4.166 9.005,6.388 4.603,3.491 7.963,6.507 10.078,9.047"></path></g><g transform="translate(302.3877,294.3715)" id="g84"><path id="path86" style="fill:#a7a5a6;fill-opacity:1;fill-rule:nonzero;stroke:none" d="M 0,0 Z"></path></g><g transform="translate(169.9536,320.5511)" id="g88"><path id="path90" style="fill:#a7a5a6;fill-opacity:1;fill-rule:nonzero;stroke:none" d="m 0,0 c 0,-0.002 -0.001,-0.002 -0.001,-0.002 0,0 0.001,0 0.001,0.002 m 1.908,-3.005 c 2.56,-2.184 4.901,-4.182 7.442,-6.35 2.294,2.988 4.355,5.667 6.564,8.537 C 12.69,2.005 9.6,4.713 6.372,7.541 4.596,5.298 3.135,3.454 1.406,1.272 c -2.549,2.307 -4.847,4.384 -7.441,6.731 -2.286,-2.894 -4.369,-5.524 -6.626,-8.377 3.298,-2.98 6.418,-5.797 9.67,-8.734 1.766,2.2 3.293,4.104 4.899,6.103"></path></g><g transform="translate(118.9751,292.9252)" id="g92"><path id="path94" style="fill:#a7a5a6;fill-opacity:1;fill-rule:nonzero;stroke:none" d="m 0,0 c 2.056,2.67 3.902,5.071 5.881,7.644 -2.887,2.53 -5.658,4.958 -8.548,7.492 -1.591,-2.009 -2.9,-3.664 -4.449,-5.616 -2.284,2.066 -4.343,3.928 -6.668,6.028 -2.048,-2.592 -3.915,-4.951 -5.936,-7.504 2.955,-2.671 5.75,-5.194 8.663,-7.825 1.582,1.969 2.95,3.675 4.39,5.469 C -4.374,3.729 -2.276,1.941 0,0"></path></g><g transform="translate(237.4653,320.8646)" id="g96"><path id="path98" style="fill:#a7a5a6;fill-opacity:1;fill-rule:nonzero;stroke:none" d="m 0,0 c 1.853,2.684 3.419,4.951 5.118,7.403 -2.966,2.786 -5.779,5.424 -8.77,8.23 C -5.222,13.359 -6.674,11.494 -7.817,9.449 -8.157,8.846 -7.963,7.416 -7.474,6.921 -5.208,4.621 -2.75,2.511 0,0"></path></g><g transform="translate(171.5703,326.0365)" id="g100"><path id="path102" style="fill:#a7a5a6;fill-opacity:1;fill-rule:nonzero;stroke:none" d="m 0,0 c 2.206,2.999 4.071,5.536 6.094,8.279 -3.549,3.126 -6.917,6.09 -10.497,9.238 -1.868,-2.544 -3.599,-4.63 -4.958,-6.915 C -9.769,9.928 -9.532,8.325 -8.945,7.767 -6.233,5.187 -3.292,2.82 0,0"></path></g><g transform="translate(153.3911,324.8177)" id="g104"><path id="path106" style="fill:#a7a5a6;fill-opacity:1;fill-rule:nonzero;stroke:#ffffff;stroke-width:0.75;stroke-linecap:round;stroke-linejoin:round;stroke-miterlimit:4;stroke-dasharray:none;stroke-opacity:1" d="M 0,0 C 0.001,0 0.001,0 0.001,0.002"></path></g><g transform="translate(187.6753,282.639)" id="g108"><path id="path110" style="fill:#110f0d;fill-opacity:1;fill-rule:nonzero;stroke:none" d="m 0,0 v 0 l 0.827,0.083 c -0.338,2.936 -2.103,6.184 -5.189,9.855 -2.269,2.609 -3.853,4.638 -4.698,5.892 0.446,-0.044 0.918,-0.074 1.418,-0.094 0.414,-0.007 0.795,0.02 1.185,0.212 0.397,0.185 0.709,0.672 0.699,1.088 -0.04,1.01 -0.705,1.638 -1.694,2.537 -2.851,2.165 -5.223,3.923 -7.157,5.311 -0.164,0.171 -0.493,0.405 -0.97,0.423 -1.206,-0.108 -1.388,-0.995 -1.617,-1.802 -0.401,-2.4 -0.677,-4.293 -0.844,-5.725 -0.037,-0.106 -0.058,-0.218 -0.062,-0.332 -0.041,-0.523 0.422,-0.987 0.775,-1.103 0.19,-0.077 0.377,-0.127 0.575,-0.16 1.322,-3.947 3.673,-7.9 7.036,-11.862 3.524,-4.111 5.585,-6.928 6.056,-8.08 -0.171,-0.363 -1.728,-1.518 -4.418,-2.797 -3.81,-1.812 -7.389,-2.642 -10.755,-2.537 l -0.045,0.002 c -4.909,0.173 -8.819,2.04 -11.96,5.718 -0.172,0.175 -1.601,2.467 -3.96,6.466 -1.596,2.602 -3.186,4.18 -5.185,4.288 -3.223,0.1 -6.481,-1.563 -9.818,-4.731 -3.015,-2.847 -5.612,-6.542 -7.804,-11.06 -1.446,-3.091 -2.91,-6.186 -4.396,-9.301 -1.481,-2.368 -3.129,-3.349 -5.134,-3.294 -2.17,0.057 -4.057,1.841 -5.518,6.099 -1.162,3.313 -1.68,6.665 -1.571,10.071 0.028,0.842 0.106,1.941 0.228,3.283 0.215,1.753 0.367,3.368 0.455,4.816 0.019,0.234 0.031,0.46 0.037,0.676 0.023,0.711 -0.006,1.265 -0.147,1.749 -0.101,0.436 -0.511,1.066 -1.259,1.092 -0.785,0 -1.188,-0.538 -1.425,-0.989 -0.257,-0.49 -0.447,-1.116 -0.62,-1.92 -0.891,-4.144 -1.381,-7.462 -1.464,-9.981 -0.207,-6.244 0.94,-11.632 3.481,-16.122 2.406,-4.19 5.397,-6.565 8.961,-6.687 3.055,-0.086 5.562,2.063 7.576,5.859 1.884,4.015 3.732,7.984 5.567,11.963 0.957,1.857 2.747,3.865 5.385,5.93 2.487,1.983 4.456,2.83 5.606,2.767 0.056,-0.002 0.111,-0.009 0.163,-0.013 0.645,-0.022 1.67,-0.85 2.658,-2.929 1.535,-3.108 2.876,-5.321 4.107,-6.703 3.705,-4.147 8.693,-6.343 14.734,-6.536 0.284,-0.004 0.572,-0.011 0.859,-0.015 l 0.13,-0.005 c 0.014,0 0.028,0.002 0.043,0.002 h 0.793 l 0.001,0.044 c 2.399,0.09 5.043,0.857 7.988,2.315 2.861,1.402 5.014,2.841 6.469,4.371 3.036,3.167 4.676,6.571 4.795,10.147 0.02,0.598 -0.003,1.196 -0.065,1.795 z"></path></g><g transform="translate(262.7739,294.8754)" id="g112"><path id="path114" style="fill:#110f0d;fill-opacity:1;fill-rule:nonzero;stroke:none" d="m 0,0 c -0.519,0.004 -0.996,-0.167 -1.662,-0.436 -8.311,-3.914 -14.434,-6.874 -18.407,-8.898 -0.437,-0.011 -0.873,-0.011 -1.306,0.005 -4.664,0.157 -9.013,2.132 -13.146,6.025 -3.651,3.463 -5.281,6.355 -5.182,8.361 -0.041,0.164 0.322,0.785 1.515,1.448 1.164,0.672 2.992,1.396 5.439,2.137 4.685,1.421 8.632,2.064 11.817,1.959 1.229,-0.036 3.484,-0.538 6.614,-1.526 0.49,-0.142 0.902,-0.223 1.287,-0.236 0.277,-0.007 0.559,0.013 0.867,0.19 0.322,0.168 0.548,0.602 0.539,0.935 -0.122,1.832 -1.892,2.933 -4.974,4.653 -3.488,1.881 -7.198,2.886 -11.09,3.015 -0.237,0.006 -0.478,0.011 -0.723,0.009 -3.966,0.065 -7.571,-1.45 -10.649,-4.435 -3.291,-3.131 -5.045,-7.114 -5.194,-11.774 -0.18,-5.875 3.678,-11.298 11.174,-16.346 -3.547,-1.113 -7.976,-1.602 -13.28,-1.423 -1.791,0.051 -3.692,1.183 -5.682,3.646 -2.493,3.079 -4.018,7.356 -4.512,12.903 -0.235,4.829 -0.456,9.686 -0.659,14.548 -0.466,8.972 -1.213,17.748 -2.24,26.322 -0.61,4.877 -1.593,9.966 -2.951,15.268 -0.732,2.841 -1.393,4.986 -2.006,6.466 -0.679,1.438 -1.012,2.416 -2.247,2.629 -0.458,0.035 -0.924,-0.278 -1.118,-0.624 l -0.062,-0.093 -0.034,-0.122 c -0.741,-2.708 -1.393,-4.918 -1.953,-6.621 l -0.035,-0.105 -0.006,-0.118 c 0.021,-0.455 0.161,-0.898 0.453,-2.125 0.29,-1.165 0.726,-2.849 1.306,-5.055 1.292,-4.769 2.084,-8.548 2.382,-11.306 1.099,-9.625 2.005,-19.964 2.727,-31.022 0.657,-9.94 1.446,-16.684 2.41,-20.357 0.738,-2.85 2.187,-5.576 4.308,-8.165 2.604,-3.178 5.581,-5.002 8.84,-5.343 l -0.001,-0.043 0.75,-0.027 h 0.019 l 0.767,-0.026 0.003,0.041 c 3.601,0.086 8.679,1.484 15.431,4.179 11.742,5.411 20.781,9.748 27.159,13.029 l 0.154,0.085 0.103,0.134 c 1.572,2.042 2.75,3.909 3.534,5.619 0.341,0.527 0.577,0.933 0.613,1.486 C 1.11,-0.883 1.017,-0.513 0.755,-0.285 0.496,-0.053 0.217,-0.009 0,0"></path></g><g transform="translate(293.2046,315.0658)" id="g116"><path id="path118" style="fill:#110f0d;fill-opacity:1;fill-rule:nonzero;stroke:none" d="m 0,0 v 0 h 0.002 z m 0.769,0.028 c -0.269,5.073 -0.977,10.847 -2.106,17.33 -1.67,9.566 -2.824,16.4 -3.452,20.494 0.348,-0.291 0.654,-0.55 0.913,-0.771 0.497,-0.396 0.884,-0.696 1.541,-0.74 0.372,0 0.751,0.079 1.037,0.322 0.291,0.238 0.396,0.569 0.401,0.847 0.011,0.366 -0.095,0.722 -0.265,1.136 -3.542,7.087 -5.683,11.125 -6.626,12.387 -0.42,0.795 -0.633,1.419 -1.698,1.581 -0.852,-0.015 -1.14,-0.602 -1.271,-1.011 -0.974,-3.082 -1.567,-4.928 -1.764,-5.535 -0.039,-0.102 -0.046,-0.203 -0.05,-0.286 0.022,-0.747 0.506,-1.346 1.287,-2.151 0.223,-2.075 1.607,-10.436 4.157,-25.237 2.344,-13.639 3.439,-22.706 3.29,-27.075 -0.024,-0.696 -0.077,-1.292 -0.166,-1.782 -0.022,-0.471 -0.85,-1.701 -2.551,-3.299 -1.631,-1.453 -3.282,-2.939 -4.93,-4.436 -2.074,-1.895 -5.349,-4.142 -9.806,-6.712 -0.787,-0.453 -3.889,-2.146 -9.252,-5.043 -0.779,-0.421 -1.373,-0.784 -1.813,-1.112 -0.414,-0.346 -0.765,-0.587 -0.833,-1.161 -0.03,-0.25 0.164,-0.606 0.446,-0.749 0.271,-0.146 0.504,-0.172 0.73,-0.178 0.762,-0.012 1.736,0.231 3.249,0.682 7.721,2.325 12.216,3.721 13.596,4.227 3.282,1.18 6.109,3.06 8.443,5.612 1.245,1.375 2.327,2.936 3.242,4.69 2.71,5.161 4.156,10.046 4.308,14.65 0.034,1.049 0.017,2.154 -0.057,3.32"></path></g><g transform="translate(283.3555,306.9467)" id="g120"><path id="path122" style="fill:#110f0d;fill-opacity:1;fill-rule:nonzero;stroke:none" d="m 0,0 c 0.191,-0.288 0.545,-1.194 0.959,-2.582 0.185,-0.611 0.345,-1.073 0.5,-1.419 0.079,-0.173 0.153,-0.315 0.258,-0.455 0.114,-0.118 0.213,-0.359 0.775,-0.425 0.828,0.088 0.83,0.48 0.959,0.654 0.276,0.646 0.457,1.824 0.666,3.781 l -0.764,0.063 0.77,-0.053 c 0.011,0.183 0.024,0.364 0.031,0.552 0.078,2.356 -0.723,5.011 -2.341,8.003 -1.608,2.943 -3.574,5.436 -5.907,7.467 -10.418,9.056 -18.325,16.117 -23.718,21.172 -3.961,3.69 -6.595,6.409 -7.787,7.873 0.727,-0.111 1.27,-0.191 1.63,-0.238 0.423,-0.101 0.819,-0.171 1.181,-0.187 0.244,-0.004 0.473,0 0.753,0.104 0.285,0.081 0.605,0.432 0.588,0.744 -0.031,0.247 -0.101,0.439 -0.203,0.603 l -2.223,1.85 c -0.546,0.375 -1.188,0.795 -1.929,1.264 -3.607,2.306 -5.583,3.595 -5.709,3.694 -1.461,1.059 -2.349,1.668 -3.379,1.756 -0.153,0.008 -0.415,-0.022 -0.627,-0.195 -0.215,-0.169 -0.274,-0.392 -0.274,-0.525 -0.003,-0.153 0.027,-0.278 0.063,-0.395 0.109,-0.636 0.155,-1.267 0.134,-1.897 -0.023,-0.67 -0.123,-1.401 -0.307,-2.185 -0.196,-0.858 -0.28,-1.184 -0.306,-1.429 -0.005,-0.166 0.021,-0.346 0.116,-0.528 l 0.071,-0.135 0.136,-0.099 c 0.945,-0.683 1.666,-1.162 2.24,-1.46 5.04,-6.91 8.737,-11.455 11.202,-13.709 C -19.599,20.244 -10.56,12.315 -5.305,7.865 -2.794,4.593 -1.024,1.962 0,0"></path></g><g transform="translate(313.002,315.5629)" id="g124"><path id="path126" style="fill:#110f0d;fill-opacity:1;fill-rule:nonzero;stroke:none" d="M 0,0 -0.769,-0.026 0,0.004 c -0.419,6.123 -1.362,15.496 -2.835,28.133 -0.891,7.781 -1.425,12.976 -1.606,15.469 0.513,-0.426 1.015,-0.814 1.507,-1.154 0.418,-0.24 0.653,-0.411 1.161,-0.453 0.269,-0.021 0.659,0.088 0.871,0.326 0.21,0.231 0.25,0.467 0.258,0.666 -0.002,1.097 -0.838,3.008 -2.482,6.282 -1.016,2.08 -2.058,4.17 -3.119,6.256 -0.305,0.674 -0.583,1.211 -0.871,1.614 -0.305,0.374 -0.513,0.751 -1.268,0.84 -0.698,0.006 -1.013,-0.49 -1.095,-0.768 -1.295,-3.082 -1.963,-4.886 -2.013,-5.801 -0.002,-0.166 -0.005,-0.324 0.12,-0.547 0.744,-1.371 1.199,-2.305 1.305,-2.598 0.479,-6.143 0.812,-10.838 0.996,-14.091 1.735,-17.918 3.106,-31.325 4.122,-40.25 0.1,-1.259 0.137,-2.509 0.098,-3.731 -0.045,-1.361 -0.182,-2.685 -0.414,-3.978 -0.155,-0.841 -0.239,-1.522 -0.256,-2.052 -0.011,-0.367 0.002,-0.658 0.09,-0.943 0.052,-0.239 0.332,-0.716 0.972,-0.753 0.652,0.033 0.841,0.304 1.114,0.541 0.258,0.262 0.519,0.603 0.817,1.05 1.601,2.397 2.416,6.158 2.597,11.363 C 0.115,-3.098 0.092,-1.571 0,0"></path></g><g transform="translate(288.6978,276.4613)" id="g128"><path id="path130" style="fill:#110f0d;fill-opacity:1;fill-rule:nonzero;stroke:none" d="m 0,0 c 5.017,0.359 8.699,3.445 9.934,8.17 0.768,2.939 0.236,3.518 -3.374,3.714 -0.967,0.049 -1.928,0.153 -2.861,0.23 1.487,2.585 2.874,5.001 4.267,7.416 C 7.563,19.782 7.162,20.042 6.762,20.296 5.726,19.684 4.312,19.259 3.736,18.414 2.355,16.38 1.127,14.22 0.26,11.984 -1.442,7.596 -0.587,6.565 5.945,5.689 2.5,3.901 -0.171,2.516 -3.895,0.583 -2.08,0.296 -1.014,-0.072 0,0"></path></g></g></g><text id="text134" style="font-variant:normal;font-weight:bold;font-stretch:normal;font-size:37.81499863px;font-family:Arial;-inkscape-font-specification:Arial-BoldMT;writing-mode:lr-tb;fill:#110f0d;fill-opacity:1;fill-rule:nonzero;stroke:none" transform="matrix(1,0,0,-1,77.3638,180.0518)"><tspan id="tspan132" y="0" x="0 25.562941 46.928413 74.608994 93.894646 102.66772 113.52063 122.29371 143.65918 165.02466 186.39014 207.75562 216.52869 242.09163 261.37729 282.74277 302.02841 310.80148 336.36441 345.13751 370.70044 389.98608 398.75919 407.53226 426.8179">Kuwait Food Bank &amp; Relief</tspan></text>
</g></svg>